<?xml version="1.0" encoding="UTF-8" standalone="no"?>
<!DOCTYPE svg PUBLIC "-//W3C//DTD SVG 1.1//EN"
 "http://www.w3.org/Graphics/SVG/1.1/DTD/svg11.dtd">
<!-- Generated by graphviz version 2.40.1 (20161225.0304)
 -->
<!-- Title: %3 Pages: 1 -->
<svg width="290pt" height="188pt"
 viewBox="0.00 0.00 289.89 188.00" xmlns="http://www.w3.org/2000/svg" xmlns:xlink="http://www.w3.org/1999/xlink">
<g id="graph0" class="graph" transform="scale(1 1) rotate(0) translate(4 184)">
<title>%3</title>
<polygon fill="#ffffff" stroke="transparent" points="-4,4 -4,-184 285.8927,-184 285.8927,4 -4,4"/>
<!-- LinksAndImages -->
<g id="node1" class="node">
<title>LinksAndImages</title>
<ellipse fill="none" stroke="#000000" cx="133.0467" cy="-162" rx="75.2868" ry="18"/>
<text text-anchor="middle" x="133.0467" y="-158.3" font-family="Times,serif" font-size="14.00" fill="#000000">LinksAndImages</text>
</g>
<!-- Images -->
<g id="node2" class="node">
<title>Images</title>
<ellipse fill="none" stroke="#000000" cx="37.0467" cy="-90" rx="37.0935" ry="18"/>
<text text-anchor="middle" x="37.0467" y="-86.3" font-family="Times,serif" font-size="14.00" fill="#000000">Images</text>
</g>
<!-- LinksAndImages&#45;&gt;Images -->
<g id="edge1" class="edge">
<title>LinksAndImages&#45;&gt;Images</title>
<path fill="none" stroke="#000000" d="M109.8078,-144.5708C96.5732,-134.6448 79.8801,-122.1251 65.8224,-111.5818"/>
<polygon fill="#000000" stroke="#000000" points="67.5646,-108.5134 57.4646,-105.3134 63.3646,-114.1134 67.5646,-108.5134"/>
</g>
<!-- Interests -->
<g id="node3" class="node">
<title>Interests</title>
<ellipse fill="none" stroke="#000000" cx="133.0467" cy="-90" rx="40.8928" ry="18"/>
<text text-anchor="middle" x="133.0467" y="-86.3" font-family="Times,serif" font-size="14.00" fill="#000000">Interests</text>
</g>
<!-- LinksAndImages&#45;&gt;Interests -->
<g id="edge2" class="edge">
<title>LinksAndImages&#45;&gt;Interests</title>
<path fill="none" stroke="#000000" d="M133.0467,-143.8314C133.0467,-136.131 133.0467,-126.9743 133.0467,-118.4166"/>
<polygon fill="#000000" stroke="#000000" points="136.5468,-118.4132 133.0467,-108.4133 129.5468,-118.4133 136.5468,-118.4132"/>
</g>
<!-- Teaching -->
<g id="node4" class="node">
<title>Teaching</title>
<ellipse fill="none" stroke="#000000" cx="237.0467" cy="-90" rx="44.6926" ry="18"/>
<text text-anchor="middle" x="237.0467" y="-86.3" font-family="Times,serif" font-size="14.00" fill="#000000">Teaching</text>
</g>
<!-- LinksAndImages&#45;&gt;Teaching -->
<g id="edge3" class="edge">
<title>LinksAndImages&#45;&gt;Teaching</title>
<path fill="none" stroke="#000000" d="M157.6933,-144.937C172.1881,-134.9021 190.647,-122.1229 206.1135,-111.4153"/>
<polygon fill="#000000" stroke="#000000" points="208.1243,-114.2802 214.354,-105.7103 204.1398,-108.5248 208.1243,-114.2802"/>
</g>
<!-- Music -->
<g id="node5" class="node">
<title>Music</title>
<ellipse fill="none" stroke="#000000" cx="133.0467" cy="-18" rx="33.5952" ry="18"/>
<text text-anchor="middle" x="133.0467" y="-14.3" font-family="Times,serif" font-size="14.00" fill="#000000">Music</text>
</g>
<!-- Interests&#45;&gt;Music -->
<g id="edge4" class="edge">
<title>Interests&#45;&gt;Music</title>
<path fill="none" stroke="#000000" d="M133.0467,-71.8314C133.0467,-64.131 133.0467,-54.9743 133.0467,-46.4166"/>
<polygon fill="#000000" stroke="#000000" points="136.5468,-46.4132 133.0467,-36.4133 129.5468,-46.4133 136.5468,-46.4132"/>
</g>
<!-- Classes -->
<g id="node6" class="node">
<title>Classes</title>
<ellipse fill="none" stroke="#000000" cx="237.0467" cy="-18" rx="37.8943" ry="18"/>
<text text-anchor="middle" x="237.0467" y="-14.3" font-family="Times,serif" font-size="14.00" fill="#000000">Classes</text>
</g>
<!-- Teaching&#45;&gt;Classes -->
<g id="edge5" class="edge">
<title>Teaching&#45;&gt;Classes</title>
<path fill="none" stroke="#000000" d="M237.0467,-71.8314C237.0467,-64.131 237.0467,-54.9743 237.0467,-46.4166"/>
<polygon fill="#000000" stroke="#000000" points="240.5468,-46.4132 237.0467,-36.4133 233.5468,-46.4133 240.5468,-46.4132"/>
</g>
</g>
</svg>
