<?xml version="1.0" encoding="UTF-8" standalone="no"?>
<!DOCTYPE svg PUBLIC "-//W3C//DTD SVG 1.1//EN"
 "http://www.w3.org/Graphics/SVG/1.1/DTD/svg11.dtd">
<!-- Generated by graphviz version 2.40.1 (20161225.0304)
 -->
<!-- Title: %3 Pages: 1 -->
<svg width="184pt" height="260pt"
 viewBox="0.00 0.00 184.29 260.00" xmlns="http://www.w3.org/2000/svg" xmlns:xlink="http://www.w3.org/1999/xlink">
<g id="graph0" class="graph" transform="scale(1 1) rotate(0) translate(4 256)">
<title>%3</title>
<polygon fill="#ffffff" stroke="transparent" points="-4,4 -4,-256 180.293,-256 180.293,4 -4,4"/>
<!-- IST250 -->
<g id="node1" class="node">
<title>IST250</title>
<ellipse fill="none" stroke="#000000" cx="85.0467" cy="-234" rx="39.7935" ry="18"/>
<text text-anchor="middle" x="85.0467" y="-230.3" font-family="Times,serif" font-size="14.00" fill="#000000">IST250</text>
</g>
<!-- Organizing -->
<g id="node2" class="node">
<title>Organizing</title>
<ellipse fill="none" stroke="#000000" cx="85.0467" cy="-162" rx="52.7911" ry="18"/>
<text text-anchor="middle" x="85.0467" y="-158.3" font-family="Times,serif" font-size="14.00" fill="#000000">Organizing</text>
</g>
<!-- IST250&#45;&gt;Organizing -->
<g id="edge1" class="edge">
<title>IST250&#45;&gt;Organizing</title>
<path fill="none" stroke="#000000" d="M85.0467,-215.8314C85.0467,-208.131 85.0467,-198.9743 85.0467,-190.4166"/>
<polygon fill="#000000" stroke="#000000" points="88.5468,-190.4132 85.0467,-180.4133 81.5468,-190.4133 88.5468,-190.4132"/>
</g>
<!-- interest -->
<g id="node3" class="node">
<title>interest</title>
<ellipse fill="none" stroke="#000000" cx="37.0467" cy="-90" rx="37.0935" ry="18"/>
<text text-anchor="middle" x="37.0467" y="-86.3" font-family="Times,serif" font-size="14.00" fill="#000000">interest</text>
</g>
<!-- Organizing&#45;&gt;interest -->
<g id="edge2" class="edge">
<title>Organizing&#45;&gt;interest</title>
<path fill="none" stroke="#000000" d="M73.1815,-144.2022C67.5012,-135.6817 60.59,-125.315 54.339,-115.9385"/>
<polygon fill="#000000" stroke="#000000" points="57.069,-113.7236 48.6098,-107.3446 51.2446,-117.6066 57.069,-113.7236"/>
</g>
<!-- teaching -->
<g id="node4" class="node">
<title>teaching</title>
<ellipse fill="none" stroke="#000000" cx="134.0467" cy="-90" rx="42.4939" ry="18"/>
<text text-anchor="middle" x="134.0467" y="-86.3" font-family="Times,serif" font-size="14.00" fill="#000000">teaching</text>
</g>
<!-- Organizing&#45;&gt;teaching -->
<g id="edge3" class="edge">
<title>Organizing&#45;&gt;teaching</title>
<path fill="none" stroke="#000000" d="M97.1591,-144.2022C103.0176,-135.5938 110.1585,-125.1011 116.5913,-115.6488"/>
<polygon fill="#000000" stroke="#000000" points="119.51,-117.5809 122.2428,-107.3446 113.723,-113.6425 119.51,-117.5809"/>
</g>
<!-- music -->
<g id="node6" class="node">
<title>music</title>
<ellipse fill="none" stroke="#000000" cx="37.0467" cy="-18" rx="32.4942" ry="18"/>
<text text-anchor="middle" x="37.0467" y="-14.3" font-family="Times,serif" font-size="14.00" fill="#000000">music</text>
</g>
<!-- interest&#45;&gt;music -->
<g id="edge5" class="edge">
<title>interest&#45;&gt;music</title>
<path fill="none" stroke="#000000" d="M37.0467,-71.8314C37.0467,-64.131 37.0467,-54.9743 37.0467,-46.4166"/>
<polygon fill="#000000" stroke="#000000" points="40.5468,-46.4132 37.0467,-36.4133 33.5468,-46.4133 40.5468,-46.4132"/>
</g>
<!-- classes -->
<g id="node5" class="node">
<title>classes</title>
<ellipse fill="none" stroke="#000000" cx="134.0467" cy="-18" rx="35.194" ry="18"/>
<text text-anchor="middle" x="134.0467" y="-14.3" font-family="Times,serif" font-size="14.00" fill="#000000">classes</text>
</g>
<!-- teaching&#45;&gt;classes -->
<g id="edge4" class="edge">
<title>teaching&#45;&gt;classes</title>
<path fill="none" stroke="#000000" d="M134.0467,-71.8314C134.0467,-64.131 134.0467,-54.9743 134.0467,-46.4166"/>
<polygon fill="#000000" stroke="#000000" points="137.5468,-46.4132 134.0467,-36.4133 130.5468,-46.4133 137.5468,-46.4132"/>
</g>
</g>
</svg>
